<svg xmlns="http://www.w3.org/2000/svg" xmlns:xlink="http://www.w3.org/1999/xlink" version="1.1" x="0px" y="0px" viewBox="0 0 256 320" style="enable-background:new 0 0 256 256;" xml:space="preserve"><title>feed-chicken-farm-agriculture-farming</title><g><path d="M48,248c-0.7,0-1.3,0-2-0.1c-13.2-1.1-23-12.7-21.9-25.9c0.4-4.4,1.9-8.6,4.5-12.2c5.2-7.2,7.1-16.2,5.4-24.9   c-3.8-18.7-5.8-37.8-6-56.9c0.2-19.1,2.2-38.2,6-56.9c1.7-8.7-0.2-17.7-5.4-24.9c-7.8-10.7-5.5-25.7,5.2-33.5   c9.7-7.1,23.1-5.9,31.4,2.7c5.2,5.5,12.6,8.3,20.2,7.5c14.1-1.7,28.3-2.7,42.5-2.9c14.2,0.2,28.4,1.1,42.5,2.9   c7.5,0.8,15-2,20.2-7.5c9.2-9.6,24.4-9.8,33.9-0.7c8.7,8.3,9.8,21.8,2.7,31.4c-5.2,7.2-7.1,16.2-5.4,24.9c3.8,18.7,5.8,37.8,6,56.9   c-0.2,19.1-2.2,38.2-6,56.9c-1.7,8.7,0.2,17.7,5.4,24.9l0,0c7.8,10.7,5.5,25.7-5.2,33.5c-8.1,5.9-19,6.2-27.4,0.6   c-7.2-4.9-16.2-6.6-24.7-4.8c-13.8,3-27.9,4.6-42,4.8c-14.1-0.1-28.2-1.7-42-4.8c-8.5-1.8-17.5-0.1-24.7,4.8   C57.3,246.6,52.7,248,48,248z M48,16c-0.5,0-1,0-1.5,0.1c-8.8,0.8-15.2,8.7-14.4,17.4c0.3,2.9,1.3,5.6,3,7.9c6.5,9,9,20.3,6.8,31.2   c-3.7,18.2-5.7,36.8-5.9,55.4c0.2,18.6,2.2,37.2,5.9,55.4c2.2,10.9-0.3,22.2-6.8,31.2c-2.2,3-3.3,6.8-3,10.5   c0.6,7.9,6.8,14.1,14.6,14.8c3.6,0.3,7.2-0.6,10.2-2.6c9-6.1,20.1-8.2,30.8-6c13.3,2.9,26.8,4.5,40.4,4.6   c13.6-0.1,27.1-1.7,40.4-4.6c10.6-2.3,21.8-0.1,30.8,6c3,2,6.6,2.9,10.2,2.6c7.9-0.7,14.1-7,14.6-14.8c0.3-3.8-0.8-7.5-3-10.5   c-6.5-9-9-20.3-6.8-31.2c3.7-18.2,5.7-36.8,5.9-55.4c-0.2-18.6-2.2-37.2-5.9-55.4c-2.2-10.9,0.3-22.2,6.8-31.2   c5.2-7.1,3.6-17.1-3.5-22.3c-6.4-4.7-15.4-3.9-20.9,1.8c-6.9,7.3-16.8,11-26.8,9.9c-13.8-1.7-27.7-2.6-41.7-2.8   c-13.9,0.2-27.8,1.1-41.7,2.8c-10,1.1-19.9-2.6-26.8-9.9C56.5,17.8,52.3,16,48,16z"/><path d="M149.8,195.1c-2.6,0-6.4-1.6-9.5-9.7c-0.5-1.4-1.1-3.4-1.7-5.4c-0.4-1.3-0.9-3.1-1.5-4.8c-4.1,8.7-7.6,12.2-11.6,11.4   c-4.9-1-5.5-7.1-5.5-13.6c0-3.4-0.3-6.7-0.9-10.1c-3.2,7.5-8,16.2-14.4,14.3c-5-1.4-6.7-8.5-4.7-20c0.2-0.8,0.2-1.7,0.1-2.5   c-0.9,0.4-2.5,1.6-5,4.7c-6.4,7.8-12.5,10.9-16.9,8.4c-2.1-1.2-5.2-4.5-2-13.3c0.8-2.2,20.1-54,50.7-62.5   c31.9-8.8,44.6,17.9,44.7,18.2c0.5,1.1,0.5,2.3,0,3.4c-0.5,1-12.1,25.2-16.1,32.3c-2.2,3.9-1.1,19.6,0.4,29.2   c2.7,10.3,1,18-4.2,19.7C151.1,195,150.5,195.1,149.8,195.1z M137.1,163.6c0.1,0,0.2,0,0.3,0c4.8,0.3,6.6,6.4,8.9,14.2   c0.6,1.9,1.1,3.7,1.5,4.8c0.4,1,0.8,2,1.4,3c0.2-2.9-0.2-5.7-1-8.5c0-0.1-0.1-0.3-0.1-0.4c-0.7-4.4-4-26.8,0.5-34.6   c3.3-5.7,12.1-24,15-29.9c-2.9-4.7-13.1-18.1-34.4-12.2c-26.7,7.4-45.1,57-45.3,57.5c-0.3,0.9-0.6,1.8-0.8,2.7   c2.3-1.5,4.3-3.4,5.9-5.6c5.5-6.8,10.5-9.2,14.8-7.3c3.6,1.6,5.2,6,4.3,11.5c-0.6,3-0.8,6.2-0.6,9.3c2-2.9,3.7-6.1,4.9-9.5   c0.8-1.9,3.2-7.8,8.3-6.8c6.5,1.3,7.4,13.9,7.4,21.4c0,0.9,0,1.6,0,2.3c1.2-2.2,2.3-4.5,3.3-6.8C133,164.5,135.3,163.6,137.1,163.6   L137.1,163.6z"/><path d="M157.5,140.1c-2.2,0-4-1.8-4-4c0-1.9,1.3-3.5,3.1-3.9l26.5-6.2l-17.2-10.6c-1.9-1.2-2.5-3.6-1.3-5.5   c1.2-1.9,3.6-2.5,5.5-1.3l25.5,15.6c1.9,1.2,2.5,3.6,1.3,5.5c-0.6,0.9-1.5,1.6-2.5,1.8l-36,8.4C158.1,140,157.8,140.1,157.5,140.1z   "/><path d="M164.9,111.1c-1.6,0-3-0.9-3.6-2.4c-0.3-0.6-6.2-13.9-7.2-25.4c-0.3-2.8-1.7-5.4-3.9-7.2c0.8,3.9,0.9,7.9-2.2,10   c-3.9,2.7-8.6-0.5-14.9-4.8c-4.3-2.9-9.7-6.6-13.9-7.6c-0.5-0.1-1.5-0.3-1.8,0.1c-0.7,0.9-1,3.9,0.5,7.7c0.9,2.1,4.4,9.1,12.5,9.8   c2.2,0.2,3.8,2.1,3.7,4.3c-0.2,2.2-2.1,3.8-4.3,3.7c-10-0.8-16.5-8.1-19.2-14.7c-2.6-6.2-2.3-12.4,0.7-15.9c1.3-1.6,4.3-4,9.7-2.8   c5.7,1.3,11.5,5.3,16.6,8.7c1.5,1,3.3,2.3,4.8,3.2c-0.1-0.3-0.1-0.7-0.2-1.1c-1-4.6,0.8-7,2-8c2-1.7,4.9-2,7.9-0.7   c4.4,1.8,9.3,7.1,10,14.5c0.9,10.2,6.5,22.7,6.6,22.8c0.9,2,0,4.4-2,5.3C166,111,165.5,111.1,164.9,111.1L164.9,111.1z"/><circle cx="140" cy="116" r="4"/><path d="M164.9,174.1c-2.9,0-5.7-1.2-7.7-3.3c-6.6-6.3-8.9-19.8-7.7-29.9c0.3-2.2,2.2-3.8,4.4-3.5c0.8,0.1,1.6,0.5,2.3,1   c-0.1-1.2-0.2-2.3-0.2-3.5c0-2.2,1.8-3.9,4-3.9h0.1c2.2,0,4,1.9,3.9,4.1c0,0.1-0.1,11.9,6.4,16.7c4.9,3.6,7,8.5,5.8,13.4   c-1.2,4.5-4.9,8-9.5,8.7C166.1,174,165.5,174.1,164.9,174.1z M157.2,144.4c-0.4,8.4,1.9,17.2,5.5,20.6c0.6,0.8,1.7,1.2,2.7,1.1   c1.5-0.2,2.6-1.3,3-2.7c0.4-1.6-0.6-3.5-2.8-5.1C160.8,154.6,158.4,149.1,157.2,144.4L157.2,144.4z"/></g><text x="0" y="271" fill="#000000" font-size="5px" font-weight="bold" font-family="'Helvetica Neue', Helvetica, Arial-Unicode, Arial, Sans-serif">Created by DompbelStudio</text><text x="0" y="276" fill="#000000" font-size="5px" font-weight="bold" font-family="'Helvetica Neue', Helvetica, Arial-Unicode, Arial, Sans-serif">from the Noun Project</text></svg>